<svg width="96" height="64" viewBox="0 0 96 64" fill="none" xmlns="http://www.w3.org/2000/svg">
  <rect width="96" height="64" rx="18" fill="url(#bg)"/>
  <path d="M16 22C16 16.4772 20.4772 12 26 12H54C59.5228 12 64 16.4772 64 22V30C64 35.5228 59.5228 40 54 40H39L28 50V40H26C20.4772 40 16 35.5228 16 30V22Z" fill="white" fill-opacity="0.92"/>
  <circle cx="30" cy="26" r="3" fill="#1C7C7D"/>
  <circle cx="40" cy="26" r="3" fill="#1C7C7D"/>
  <circle cx="50" cy="26" r="3" fill="#1C7C7D"/>
  <circle cx="74" cy="22" r="10" fill="#F05A28"/>
  <path d="M68 42C68 38.6863 70.6863 36 74 36H76C79.3137 36 82 38.6863 82 42V44H68V42Z" fill="#FFD9CC"/>
  <defs>
    <linearGradient id="bg" x1="8" y1="5" x2="86" y2="58" gradientUnits="userSpaceOnUse">
      <stop stop-color="#E7F3FF"/>
      <stop offset="1" stop-color="#D9ECFF"/>
    </linearGradient>
  </defs>
</svg>
