<svg width="96" height="64" viewBox="0 0 96 64" fill="none" xmlns="http://www.w3.org/2000/svg">
  <rect width="96" height="64" rx="18" fill="url(#bg)"/>
  <rect x="14" y="14" width="28" height="36" rx="8" fill="white" fill-opacity="0.9"/>
  <rect x="18" y="19" width="20" height="4" rx="2" fill="#1C7C7D"/>
  <rect x="18" y="27" width="16" height="4" rx="2" fill="#79B7A9"/>
  <rect x="18" y="35" width="14" height="4" rx="2" fill="#F5BF47"/>
  <path d="M56 18C56 15.7909 57.7909 14 60 14H72C74.2091 14 76 15.7909 76 18V46C76 48.2091 74.2091 50 72 50H60C57.7909 50 56 48.2091 56 46V18Z" fill="#FFF5DE"/>
  <path d="M61 23H71" stroke="#D68B23" stroke-width="3" stroke-linecap="round"/>
  <path d="M61 30H71" stroke="#D68B23" stroke-width="3" stroke-linecap="round"/>
  <path d="M61 37H68" stroke="#D68B23" stroke-width="3" stroke-linecap="round"/>
  <defs>
    <linearGradient id="bg" x1="7" y1="6" x2="87" y2="59" gradientUnits="userSpaceOnUse">
      <stop stop-color="#EAF6F4"/>
      <stop offset="1" stop-color="#D7EEE8"/>
    </linearGradient>
  </defs>
</svg>
